<svg id="Layer_1" data-name="Layer 1" xmlns="http://www.w3.org/2000/svg" viewBox="0 0 500 500"><defs><style>.cls-1{fill:#004f9e;}.cls-2{fill:#ef7918;}.cls-3{fill:#fff;}.cls-4{fill:#40bfef;}</style></defs><title>Artboard 1</title><circle class="cls-1" cx="250.46" cy="250.63" r="155.08"/><path class="cls-1" d="M85.2,241.85,50,250.07l.69-8.5,14.84-3c4.22-.84,8.17-1.59,12.51-2.06v-.15c-4.05-1.2-8-2.6-11.86-4.09L51.89,226.7l.67-8.25,33.37,14.33Z"/><path class="cls-1" d="M78.74,195.64,75.57,207.9l7.91,2L87,196.25l6.18,1.6-5.48,21.21L54.4,210.45l5.3-20.52,6.18,1.6-3.36,13,6.92,1.79,3.17-12.26Z"/><path class="cls-1" d="M63.48,180.3A67.9,67.9,0,0,1,67,170.54c2.08-4.66,4.23-7.62,7-9.07a8.73,8.73,0,0,1,7.93,0,9.12,9.12,0,0,1,5.22,9l.14.06c1.86-1.8,4.46-2.1,7.7-1.6,4,.62,8.55,1.52,10,1.45l-3.24,7.28a46.08,46.08,0,0,1-8.28-1.12c-4.36-.88-6,0-7.34,2.93l-.94,2.1,12.36,5.51-3.14,7Zm16.66-1,1.25-2.8c1.58-3.54.74-6.43-2-7.66s-5.21,0-6.66,3.29a15.47,15.47,0,0,0-1.2,3.32Z"/><path class="cls-1" d="M100.21,163.34a19.67,19.67,0,0,0,6.56-6c2-3,1.79-5.37-.09-6.61s-3.71-.5-7.19,2.16c-4.86,3.64-9.59,5-13.76,2.27-4.89-3.25-5.86-9.83-1.4-16.55a20.13,20.13,0,0,1,6.3-6.36l4.23,4.89a16.09,16.09,0,0,0-5.31,5.05c-1.86,2.81-1.45,5,0,6,1.83,1.21,3.68.18,7.57-2.64,5.23-3.82,9.42-4.41,13.46-1.73,4.81,3.19,6.47,9.56,1.24,17.43a22.45,22.45,0,0,1-7.18,6.94Z"/><path class="cls-1" d="M104.2,113.89l5.6-5.3,10.46,11.06.07-.07c-.36-1.49-.6-2.94-.85-4.39l-2.22-13.64,7-6.6,1.8,18.47,22.26,6.14-6.57,6.21-16.37-5,.38,4.63,7.72,8.16-5.6,5.3Z"/><path class="cls-1" d="M131.27,90.35a67.89,67.89,0,0,1,8.27-6.29c4.27-2.8,7.68-4.13,10.79-3.85A8.73,8.73,0,0,1,157,84.5a9.12,9.12,0,0,1-.45,10.38l.08.13c2.54-.51,4.88.64,7.35,2.81,3.06,2.7,6.38,5.89,7.66,6.64L165,108.83a46.12,46.12,0,0,1-6.37-5.41c-3.19-3.09-5-3.22-7.77-1.5l-1.92,1.26,7.43,11.31-6.44,4.23Zm14.58,8.14,2.56-1.68c3.24-2.13,4.1-5,2.44-7.53s-4.4-2.79-7.39-.83a15.49,15.49,0,0,0-2.8,2.15Z"/><path class="cls-1" d="M178.5,91.79l1.14,9.1-7.4,3.08-3.58-35.79,9.43-3.93,23.14,27.64-7.78,3.24L187.6,88Zm5.82-8.73-4.79-5.91c-1.35-1.65-2.9-3.77-4.16-5.46l-.09,0c.31,2.08.85,4.68,1.09,6.74L177.3,86Z"/><path class="cls-1" d="M210.23,81l-.64,9.15-7.86,1.6,3.38-35.81,10-2,17.38,31.58-8.26,1.68L219.88,79Zm7.39-7.45-3.56-6.73c-1-1.88-2.12-4.26-3-6.16l-.1,0c-.09,2.1-.07,4.76-.23,6.82L210.17,75Z"/><path class="cls-1" d="M235.39,85.44,234.84,51l9.09-.15,7.35,12.5a108.52,108.52,0,0,1,5.81,11.7h.1a142,142,0,0,1-.85-14.39l-.16-10,7.15-.12L263.88,85l-8.17.13L248.15,72A116.66,116.66,0,0,1,242,59.9h-.2c.33,4.59.51,9.44.6,15.06l.17,10.36Z"/><path class="cls-1" d="M280.59,59.62,271.43,58l1.14-6.44,26,4.62-1.14,6.44L288.23,61l-4.87,27.45-7.64-1.36Z"/><path class="cls-1" d="M309.54,59.68,316.95,62l-6.46,20.77c-2.91,9.36-8.41,11.23-15.58,9a20.36,20.36,0,0,1-5.22-2.48l2.69-5.74A12.8,12.8,0,0,0,296,85.31c3.12,1,5.51.16,7.09-4.91Z"/><path class="cls-1" d="M336.48,92.17,325,86.77l-3.49,7.39,12.79,6L331.6,106l-19.81-9.35,14.7-31.12,19.16,9-2.73,5.77-12.14-5.73L327.73,81l11.45,5.41Z"/><path class="cls-1" d="M339.75,101.56a19.67,19.67,0,0,0,5.92,6.64c3,2,5.35,1.86,6.62,0s.55-3.7-2.06-7.22c-3.57-4.91-4.91-9.66-2.09-13.79,3.31-4.85,9.91-5.73,16.57-1.18A20.13,20.13,0,0,1,371,92.4L366,96.57a16.09,16.09,0,0,0-5-5.38c-2.78-1.9-5-1.51-6-.08-1.24,1.81-.23,3.68,2.54,7.61,3.75,5.28,4.29,9.48,1.55,13.49-3.25,4.77-9.65,6.34-17.45,1a22.44,22.44,0,0,1-6.85-7.27Z"/><path class="cls-1" d="M360.51,126.37l19.22-29.69,5.75,6-8.42,11.66c-2.46,3.41-5.18,7-7.3,9.81l.07.07c3.08-2.17,6.64-4.44,10.33-6.78l12.16-7.6,5.72,6-8.57,12c-2.39,3.34-4.65,6.29-7.07,9.31l.07.07c3.12-2.28,6.56-4.51,10-6.86l12.09-7.68,5.47,5.72-31,17.37-5.82-6.09,8.69-12.34c2.05-2.88,4-5.51,6.55-8.52l-.07-.07c-3.23,2.24-6,4.09-9.05,5.9l-13,7.87Z"/><path class="cls-1" d="M396,154.61l-8.8,2.56L383,150.35l34.78-9.18,5.37,8.69-23.65,27.21-4.43-7.17,6.12-6.9Zm9.54,4.37,5.09-5.66c1.42-1.59,3.27-3.46,4.74-5l-.05-.09c-2,.64-4.49,1.57-6.48,2.14l-7.29,2.1Z"/><path class="cls-1" d="M427,171.67l-3.62-8.56,6-2.55,10.32,24.35-6,2.55L430,178.82l-25.67,10.87-3-7.15Z"/><path class="cls-1" d="M427.69,217.5l-3-12.3-7.93,1.95,3.37,13.74-6.2,1.52-5.22-21.27,33.42-8.21,5.05,20.58L441,215l-3.2-13-6.94,1.7,3,12.3Z"/><path class="cls-1" d="M448.39,223.75A67.92,67.92,0,0,1,449.88,234c.38,5.09-.11,8.71-1.86,11.3a8.73,8.73,0,0,1-7,3.75,9.12,9.12,0,0,1-8.86-5.43H432c-.79,2.47-2.93,4-6,5.06-3.84,1.36-8.25,2.72-9.52,3.48l-.6-7.94a46.09,46.09,0,0,1,7.82-2.94c4.26-1.29,5.27-2.85,5.07-6.07L428.6,233l-13.5,1-.58-7.69Zm-14.19,8.8.23,3.06c.29,3.87,2.4,6,5.4,5.79s4.57-2.5,4.31-6.06a15.52,15.52,0,0,0-.52-3.49Z"/><path class="cls-2" d="M67.55,266.67a8.06,8.06,0,1,1-7,9A8,8,0,0,1,67.55,266.67Z"/><path class="cls-1" d="M91.5,296.58l2.59,7.32L67.8,313.19l4.56,12.9-6.16,2.18L59.06,308Z"/><path class="cls-1" d="M92.38,347.32l-6-11.14-7.19,3.88,6.72,12.45-5.62,3-10.4-19.28,30.29-16.34,10.06,18.65-5.62,3-6.38-11.82-6.29,3.39,6,11.14Z"/><path class="cls-1" d="M112.73,342.59l4.75,6.07-12,9.38.06.08c1.52-.21,3-.33,4.45-.44l13.79-.94,5.92,7.56-18.56.06L103,386l-5.57-7.12L103.88,363l-4.65-.06-8.85,6.92-4.75-6.07Z"/><path class="cls-1" d="M131.58,365.89l5.76,5.12-10.11,11.37.08.07c1.45-.48,2.88-.86,4.3-1.23l13.4-3.39,7.17,6.38-18.25,3.38-4.21,22.71-6.75-6,3.54-16.74-4.58.77-7.47,8.39-5.76-5.12Z"/><path class="cls-1" d="M161.28,413.07l-10.74-6.71-4.33,6.93,12,7.49-3.38,5.41-18.58-11.6,18.23-29.19,18,11.22L169.07,402l-11.39-7.11L153.89,401l10.74,6.71Z"/><path class="cls-1" d="M176.47,399.29a67.91,67.91,0,0,1,9.86,3.29c4.72,1.95,7.73,4,9.26,6.75a8.73,8.73,0,0,1,.21,7.93,9.12,9.12,0,0,1-8.83,5.47l-.06.14c1.85,1.81,2.22,4.4,1.81,7.65-.51,4-1.28,8.59-1.17,10.07l-7.36-3a46.09,46.09,0,0,1,.89-8.31c.76-4.38-.18-6-3.14-7.26l-2.12-.88-5.16,12.51-7.13-2.94ZM178,415.92l2.83,1.17c3.59,1.48,6.45.56,7.6-2.22s-.17-5.21-3.48-6.57a15.48,15.48,0,0,0-3.35-1.11Z"/><path class="cls-1" d="M230.14,434.8l-12.49-2.06-1.33,8.06,14,2.31-1,6.3-21.61-3.57,5.61-34,20.91,3.46-1,6.3-13.25-2.19-1.17,7.05,12.49,2.06Z"/><path class="cls-1" d="M239.38,450.38,238.82,416l9.09-.15,7.35,12.5a108.59,108.59,0,0,1,5.81,11.7h.1a142,142,0,0,1-.84-14.39l-.16-10,7.15-.12.56,34.41-8.17.13-7.57-13.16A116.73,116.73,0,0,1,246,424.84h-.2c.33,4.59.51,9.44.6,15.06l.17,10.36Z"/><path class="cls-1" d="M318.82,437.05a38.52,38.52,0,0,1-10.52,5c-6,1.72-10.85,1.44-14.71-.6a17.25,17.25,0,0,1-8.1-10.76c-3.08-11,3.14-19.58,14-22.66a24.86,24.86,0,0,1,9.63-1l.15,6.49a18,18,0,0,0-8.07.75c-6.24,1.77-10,6.61-8,13.84,2,6.88,7.41,9.63,13.55,7.88a11.92,11.92,0,0,0,3.51-1.47l-2-7L303.19,429l-1.66-5.85,12.33-3.5Z"/><path class="cls-1" d="M341.23,412.18l-11.36,5.6,3.61,7.33,12.69-6.25,2.82,5.73-19.65,9.68-15.21-30.88,19-9.36,2.82,5.73-12,5.93,3.16,6.41,11.36-5.6Z"/><path class="cls-1" d="M353.12,417.42l-.42-28.72-.12-.17-12.12,8.68L336.71,392,357,377.44l2.62,3.65.53,28.27.12.17L373.52,400l3.75,5.23-21.71,15.56Z"/><path class="cls-1" d="M393.13,364.8c8.17,7.86,8.36,17.46,1.35,24.75s-16.78,6.32-23.88-.51c-7.44-7.15-8.39-17.28-1.38-24.57C376.54,356.86,386.25,358.18,393.13,364.8ZM376.19,383c4.9,4.71,10.51,5.72,14.12,2s2.13-9.43-2.7-14.07c-4.49-4.32-10.34-5.9-14.05-2S371.36,378.38,376.19,383Z"/><path class="cls-1" d="M412.16,368.43,383,350.17l4.82-7.71,14.48.63a108.61,108.61,0,0,1,13,1.5l.05-.09a142.1,142.1,0,0,1-12.53-7.12l-8.48-5.31L398.1,326l29.18,18.26-4.33,6.93-15.16-.81A116.69,116.69,0,0,1,394.31,349l-.11.17c4,2.22,8.2,4.71,13,7.69l8.79,5.5Z"/><path class="cls-1" d="M400.9,321.53a68.59,68.59,0,0,1,2.91-10.08c2.28-6.18,4.92-9.78,8.35-12,3.73-2.43,8.48-3.07,14.18-1,6.18,2.28,9.61,6.11,11.11,10.15,1.57,4.44,1,10.16-1.35,16.48a66.74,66.74,0,0,1-3.54,8.11Zm29,2.44a14.57,14.57,0,0,0,1.08-2.49c2.51-6.64.48-12.34-7.23-15.19-6.71-2.48-11.7.14-14,6.46a16.57,16.57,0,0,0-.93,3.41Z"/><path class="cls-2" d="M431.29,282.56a8.06,8.06,0,1,1,9-6.89A8,8,0,0,1,431.29,282.56Z"/><path class="cls-3" d="M154.67,283.9V296a4.62,4.62,0,0,0,2.93,4.3l46.31,18.12v42.37a4.61,4.61,0,0,0,4.61,4.61h33.22a4.61,4.61,0,0,0,4.61-4.61V284.24a4.61,4.61,0,0,0-4.61-4.61H238V178a15.32,15.32,0,0,1,15.31-15.31h12.56A15.32,15.32,0,0,1,281.12,178v47.54a10.16,10.16,0,0,0-4.7,8.51v21.84A10.13,10.13,0,0,0,286.55,266h16.38A10.13,10.13,0,0,0,313,255.89V234.05a10.13,10.13,0,0,0-5.11-8.76V178a42.17,42.17,0,0,0-42.12-42.12H253.26A42.17,42.17,0,0,0,211.13,178V279.62h-2.61a4.61,4.61,0,0,0-4.61,4.61v6.55l-43.46-11.35a4.61,4.61,0,0,0-5.78,4.47Zm128.65-28V234.05a3.23,3.23,0,0,1,3.23-3.23h16.38a3.24,3.24,0,0,1,3.23,3.23v21.84a3.23,3.23,0,0,1-3.23,3.23H286.55A3.23,3.23,0,0,1,283.32,255.89Zm-17.5-100.09H253.26A22.22,22.22,0,0,0,231.06,178V284.24H218V178a35.27,35.27,0,0,1,35.23-35.24h12.56A35.27,35.27,0,0,1,301,178v50.54H288V178A22.22,22.22,0,0,0,265.81,155.81Zm-55,160.33V286.51h28.67v72H210.8Zm-2.28-3.33-47-18.38v-7.58l47,12.27Z"/><path class="cls-4" d="M294.74,275.09c-3.08,11.69-9.84,22.87-9.84,28.3a9.84,9.84,0,1,0,19.69,0C304.58,298,298.41,289,294.74,275.09Zm-4.61,23.4c0-2.55,3.17-7.79,4.61-13.27,1.72,6.5,4.61,10.72,4.61,13.27a4.61,4.61,0,1,1-9.23,0Z"/></svg>