<svg id="Layer_1" data-name="Layer 1" xmlns="http://www.w3.org/2000/svg" viewBox="0 0 1268 775"><defs><style>.cls-1{fill:#004f9e;}.cls-2{fill:#ef7918;}.cls-3{fill:#40bfef;}.cls-4{fill:#fff;}</style></defs><title>Artboard 1</title><path class="cls-1" d="M51.62,303.63C73.56,279,113.4,235.86,146.32,199.46c-3.75-17.53-6.93-35.44-6.93-51.9,0-42.15,22.23-72.05,55.43-77.91,30-5.29,43,14.07,43,34.57,0,28.29-24.83,58.65-52,89.71,3.46,18.44,6.64,37.52,6.64,53.39,0,56.87-39.26,100.46-92.67,109.88-20.5,3.62-39,1.39-53.7-5.83-13.86,19.77-20.79,38.31-16.75,60.69L2.54,416.8C-1.79,393,6.3,365,25.64,336.22,15.25,323.9,9.18,307.36,9.18,286.86c0-65,61.2-109.53,110.28-93.06l-12.41,33.08c-32.33-9.6-61.78,18.4-61.78,52.18A47.46,47.46,0,0,0,51.62,303.63Zm100.76-72C125,262.12,96.95,292.75,72.7,319.84c7.51,3,16.17,3.79,26.27,2,32.62-5.75,55.43-34.6,55.43-69.24C154.4,246.54,153.25,239.52,152.38,231.59Zm27.14-70.32c17.61-21,26.56-35,26.56-46.83,0-6.64-2.89-12.19-11-10.77-13.28,2.34-17.9,20.48-17.9,34A147.41,147.41,0,0,0,179.52,161.27Z"/><path class="cls-1" d="M393.45,210.74c-21.94,42.55-56.87,82.49-104.8,90.94-34.93,6.16-44.75-10-44.75-10l13.57-14.81s4.33,5.3,9.24,4.43c17.32-3.05,47.06-69.79,47.06-96.64,0-8.08-2.89-11.62-8.95-10.55-10.39,1.83-23.1,14.75-32.62,30L210.12,368.93l-40.71,7.18,83.72-221.76,40.42-7.13-4.91,13.28c.29-.63,14.43-18.71,34.93-22.33,21.65-3.82,30.89,12.16,30.89,33.24,0,37.53-29.16,91.17-41,105.1,24.54-13.85,45.33-36.29,65.25-73.86C384.21,202,391.71,206.14,393.45,210.74Z"/><path class="cls-1" d="M533.18,186.1c-19.92,38.16-54.28,82-106.53,91.25-36.38,6.41-54.56-8.57-54.56-38.88,0-39.55,30.6-114.23,88.05-124.36,31.18-5.5,54.56,12.9,36.38,55.37-12.7,30.24-36.66,48-84.59,50.71,0,0-11,36.29,25.7,29.82,28.87-5.09,60-32,80.83-72C523.94,177.33,531.45,181.5,533.18,186.1ZM418.85,197c26.85-.4,36.67-14.84,42.73-30.63,5.48-12.8,6.35-21-3.75-19.26C435.31,151.1,418.85,197,418.85,197Z"/><path class="cls-1" d="M672.91,161.46c-19.92,38.16-54.28,82-106.53,91.25-36.38,6.41-54.56-8.57-54.56-38.88,0-39.55,30.6-114.23,88.05-124.36,31.18-5.5,54.56,12.9,36.38,55.37-12.7,30.24-36.66,48-84.59,50.71,0,0-11,36.29,25.7,29.82,28.87-5.09,60-32,80.84-72C663.67,152.69,671.18,156.86,672.91,161.46ZM558.59,172.38c26.85-.4,36.67-14.84,42.73-30.63,5.48-12.8,6.35-21-3.75-19.26C575,126.46,558.59,172.38,558.59,172.38Z"/><path class="cls-1" d="M756.35,146.75c-22.52,43.23-50.52,81.37-82,86.92-25.4,4.48-42.44-11.86-21.65-67.49L709.29,16.76,750,9.58l-60,159.27c-13,34.62-7.8,38-2.31,37.07,12.7-2.24,33.78-28.76,54-67.26C747.11,138,754.61,142.15,756.35,146.75Z"/><path class="cls-1" d="M519.46,379.54c-23.09,44.2-49.94,81.27-82.86,87.07C408.89,471.5,395.9,453,416.4,398l6.93-18c5.2-14.2,10.1-26.61,10.1-30.94,0-3.75-3.46-5.45-7.79-4.69-7.51,1.32-21.08,10.36-33.2,26.06L352,477.77,311,485c6.35-17,27.43-72.39,34.36-91.22,5.2-13.91,10.1-26.61,10.1-31.23,0-3.46-3.18-5.21-7.5-4.45-7.51,1.32-20.79,10-33.2,26.35l-40.42,107-40.71,7.18,60.63-160.52L335,330.94l-6.06,16.37c5.77-6.5,24.83-23.43,44.75-26.94,16.17-2.85,26.27,4.89,26,19.67C410,328.1,430.54,310.34,451,306.73c16.75-3,26.56,4.56,26.56,19.57,0,8.37-3.18,19.32-9.24,35.12l-15,40.18c-13.57,35.59-7.22,37.94-2.31,37.07,12.7-2.24,33.49-28.71,53.7-67.21C510.22,370.77,517.73,374.94,519.46,379.54Z"/><path class="cls-1" d="M659.2,354.9c-19.92,38.16-54.28,82-106.53,91.25-36.38,6.41-54.56-8.57-54.56-38.88,0-39.55,30.6-114.23,88.05-124.37,31.18-5.5,54.56,12.9,36.38,55.37-12.7,30.24-36.66,48-84.59,50.71,0,0-11,36.29,25.7,29.82,28.87-5.09,60-32,80.83-72C650,346.14,657.46,350.3,659.2,354.9ZM544.87,365.82c26.85-.4,36.67-14.84,42.73-30.63,5.48-12.8,6.35-21-3.75-19.26C561.33,319.91,544.87,365.82,544.87,365.82Z"/><path class="cls-1" d="M798.93,330.26c-19.92,38.16-54.28,82-106.53,91.25-36.38,6.41-54.56-8.57-54.56-38.88,0-39.55,30.6-114.23,88.05-124.36,31.18-5.5,54.56,12.9,36.38,55.37-12.7,30.24-36.67,48-84.59,50.71,0,0-11,36.29,25.7,29.82,28.87-5.09,60-32,80.83-72C789.69,321.5,797.2,325.66,798.93,330.26ZM684.61,341.18c26.85-.4,36.66-14.84,42.73-30.63,5.48-12.8,6.35-21-3.76-19.26C701.06,295.27,684.61,341.18,684.61,341.18Z"/><path class="cls-2" d="M419.12,573c18.06,34.28,8.71,61-51.91,79,0,49.22-38.37,102-94.16,111.87-49,8.64-84.16-20.41-84.16-65.18,0-44.46,35.15-84.95,76.74-93.23A49.3,49.3,0,0,1,262.41,587c0-39.69,31.6-73.84,71.26-80.84,40-7.05,58.36,18.6,58.36,42.74,0,25.09-19.35,49.77-44.82,54.26-22.57,4-33.86-11.18-31-27.25,1.61-11.08,10.32-19.28,19.67-20.93,8.71-1.54,16.12,3.51,17.73,11.16,10-13.51.64-32.5-19.67-28.92-17.09,3-35.79,19.65-35.79,43.46,0,11.75,4.51,23.34,16.44,31.08L295,643.49s-9.67-7.18-24.83-4.51c-23.22,4.09-42.56,27.19-42.56,52.28,0,21.91,14.83,41.52,46.11,36,34.83-6.14,55.78-37.78,55.46-64.39-26.12,9.37-31,19.43-32.89,35.33l-25.8,4.55c5.48-47,31.6-61.14,76.1-76,43.53-14.66,51.91-17.41,43.53-38.16Z"/><path class="cls-1" d="M870.39,551.43c-30,56.48-80.08,97.14-136.28,88.14-32.32,40.75-67.44,63.55-99.75,69.25-29.51,5.2-50.11-4.08-54.33-31.93-20.61,27.62-45,49.44-73.53,54.47-39.81,7-69.31-17.76-34.65-107.81l54.33-141,66-11.64L532.26,627.66c-20.14,52-10.77,54.94-3.75,53.7,21.54-3.8,45-41.6,70.25-89.41l50.11-131.06,66-11.64L655,606c-19.2,50.43-12.18,55.19-3.28,53.62,10.3-1.82,24.82-12.68,42.15-35.11a29.12,29.12,0,0,1-6.56-19.14c0-21.21,19.67-40.83,41.21-40.47,15-32.16,29-73.38,40.28-125.17L824,424c-15.93,76.14-39.34,136.54-67,182,29,3.64,62.76-18,89.45-67.43C855.41,537.47,867.58,544.08,870.39,551.43Z"/><path class="cls-1" d="M1005.74,527.56c-36.53,69.17-82,130.21-133,139.22C831.52,674,803.89,648,837.61,559.05l54.33-141,66-11.64L898,563.16c-21.07,55.37-12.64,60.8-3.75,59.23,20.61-3.63,54.79-46.1,87.58-107.69C990.75,513.6,1002.93,520.22,1005.74,527.56Z"/><path class="cls-1" d="M1266.59,481.57c-37.47,70.71-81,130.05-134.41,139.46-45.43,8-66-22-32.78-109.52l10.77-28.65c9.37-23.79,16.39-42.56,16.39-49.47,0-6-5.15-8.78-12.18-7.54-12.18,2.15-33.72,16.09-53.86,42.24L995,639.23l-66,11.64,98.35-256.71,66-11.64-9.84,26.18c9.37-10.41,40.28-37.54,72.59-43.24,26.7-4.71,42.15,6.87,42.15,31.31,0,12.91-4.68,30.34-14.52,56.06l-24.35,64.25c-22,56.92-11.71,60.64-3.75,59.23,20.61-3.63,53.86-45.93,87.11-107.6C1251.61,467.6,1263.78,474.22,1266.59,481.57Z"/><path class="cls-3" d="M915.46,402.63c33.83-26.72,180.86-46.2,198-125.84,12.34-57.25-37.19-111-97.34-89.45C952.27,210.26,925.68,315.17,915.46,402.63Z"/><path class="cls-4" d="M949.62,353.29c13.13-40,29.09-62.23,43-67.21a26.18,26.18,0,0,1,8.76-1.71,15.32,15.32,0,0,1,12.44,6.24,20.91,20.91,0,0,1,3.6,17.6C1013.93,324.2,980.22,340.9,949.62,353.29Z"/><path class="cls-3" d="M907.4,323.91c-20.57-32.74-137.65-94.42-129.16-166.16,6.1-51.57,62.82-81.14,106.82-44.55C931.78,152.05,923.92,247.79,907.4,323.91Z"/><path class="cls-4" d="M895,274.3c-21.47-19.43-43.71-42.87-42.08-56.67,1.16-9.81,8.39-15.1,14.61-15.1,3.52,0,7.26,1.63,11.13,4.85C888.53,215.56,895.31,238.19,895,274.3Z"/><path class="cls-3" d="M949.88,205.79c13.47-22,91.17-64.29,84.91-112.13-4.5-34.39-42.63-53.64-71.72-28.81C932.19,91.21,938.22,155.09,949.88,205.79Z"/><path class="cls-4" d="M959.93,170.39c-.51-24.23,3.85-39.48,10.39-45.06,2.61-2.22,5.15-3.35,7.54-3.35,4.14,0,9,3.51,9.85,10C988.92,141.26,974.15,157.19,959.93,170.39Z"/></svg>